<mxfile host="Electron" agent="Mozilla/5.0 (Windows NT 10.0; Win64; x64) AppleWebKit/537.36 (KHTML, like Gecko) draw.io/24.7.17 Chrome/128.0.6613.36 Electron/32.0.1 Safari/537.36" version="24.7.17">
  <diagram name="第 1 页" id="KG5IuX4BdkrAF-S_3tP0">
    <mxGraphModel dx="1089" dy="639" grid="1" gridSize="10" guides="1" tooltips="1" connect="1" arrows="1" fold="1" page="1" pageScale="1" pageWidth="4681" pageHeight="3300" math="0" shadow="0">
      <root>
        <mxCell id="0" />
        <mxCell id="1" parent="0" />
        <mxCell id="iSf787gSKqXTCaNpPg6H-1" value="" style="rounded=0;whiteSpace=wrap;html=1;" vertex="1" parent="1">
          <mxGeometry x="60" y="20" width="460" height="570" as="geometry" />
        </mxCell>
        <mxCell id="iSf787gSKqXTCaNpPg6H-2" value="" style="rounded=0;whiteSpace=wrap;html=1;" vertex="1" parent="1">
          <mxGeometry x="570" y="20" width="560" height="570" as="geometry" />
        </mxCell>
        <mxCell id="iSf787gSKqXTCaNpPg6H-3" value="" style="rounded=0;whiteSpace=wrap;html=1;" vertex="1" parent="1">
          <mxGeometry x="60" y="630" width="1070" height="300" as="geometry" />
        </mxCell>
        <mxCell id="iSf787gSKqXTCaNpPg6H-4" value="前端" style="text;html=1;align=center;verticalAlign=middle;whiteSpace=wrap;rounded=0;" vertex="1" parent="1">
          <mxGeometry x="80" y="30" width="60" height="30" as="geometry" />
        </mxCell>
        <mxCell id="iSf787gSKqXTCaNpPg6H-5" value="后端" style="text;html=1;align=center;verticalAlign=middle;whiteSpace=wrap;rounded=0;" vertex="1" parent="1">
          <mxGeometry x="600" y="30" width="60" height="30" as="geometry" />
        </mxCell>
        <mxCell id="iSf787gSKqXTCaNpPg6H-6" value="数据库" style="text;html=1;align=center;verticalAlign=middle;whiteSpace=wrap;rounded=0;" vertex="1" parent="1">
          <mxGeometry x="80" y="640" width="60" height="30" as="geometry" />
        </mxCell>
        <mxCell id="iSf787gSKqXTCaNpPg6H-7" value="图书信息" style="rounded=0;whiteSpace=wrap;html=1;" vertex="1" parent="1">
          <mxGeometry x="90" y="130" width="100" height="40" as="geometry" />
        </mxCell>
        <mxCell id="iSf787gSKqXTCaNpPg6H-8" value="借阅记录" style="rounded=0;whiteSpace=wrap;html=1;" vertex="1" parent="1">
          <mxGeometry x="90" y="240" width="100" height="40" as="geometry" />
        </mxCell>
        <mxCell id="iSf787gSKqXTCaNpPg6H-9" value="借阅" style="rounded=0;whiteSpace=wrap;html=1;" vertex="1" parent="1">
          <mxGeometry x="90" y="340" width="100" height="40" as="geometry" />
        </mxCell>
        <mxCell id="iSf787gSKqXTCaNpPg6H-11" value="图书表" style="swimlane;fontStyle=0;childLayout=stackLayout;horizontal=1;startSize=30;horizontalStack=0;resizeParent=1;resizeParentMax=0;resizeLast=0;collapsible=1;marginBottom=0;whiteSpace=wrap;html=1;" vertex="1" parent="1">
          <mxGeometry x="90" y="690" width="140" height="180" as="geometry" />
        </mxCell>
        <mxCell id="iSf787gSKqXTCaNpPg6H-12" value="图书编号" style="text;strokeColor=none;fillColor=none;align=left;verticalAlign=middle;spacingLeft=4;spacingRight=4;overflow=hidden;points=[[0,0.5],[1,0.5]];portConstraint=eastwest;rotatable=0;whiteSpace=wrap;html=1;" vertex="1" parent="iSf787gSKqXTCaNpPg6H-11">
          <mxGeometry y="30" width="140" height="30" as="geometry" />
        </mxCell>
        <mxCell id="iSf787gSKqXTCaNpPg6H-13" value="图书名称" style="text;strokeColor=none;fillColor=none;align=left;verticalAlign=middle;spacingLeft=4;spacingRight=4;overflow=hidden;points=[[0,0.5],[1,0.5]];portConstraint=eastwest;rotatable=0;whiteSpace=wrap;html=1;" vertex="1" parent="iSf787gSKqXTCaNpPg6H-11">
          <mxGeometry y="60" width="140" height="30" as="geometry" />
        </mxCell>
        <mxCell id="iSf787gSKqXTCaNpPg6H-14" value="作者" style="text;strokeColor=none;fillColor=none;align=left;verticalAlign=middle;spacingLeft=4;spacingRight=4;overflow=hidden;points=[[0,0.5],[1,0.5]];portConstraint=eastwest;rotatable=0;whiteSpace=wrap;html=1;" vertex="1" parent="iSf787gSKqXTCaNpPg6H-11">
          <mxGeometry y="90" width="140" height="30" as="geometry" />
        </mxCell>
        <mxCell id="iSf787gSKqXTCaNpPg6H-15" value="出版社" style="text;strokeColor=none;fillColor=none;align=left;verticalAlign=middle;spacingLeft=4;spacingRight=4;overflow=hidden;points=[[0,0.5],[1,0.5]];portConstraint=eastwest;rotatable=0;whiteSpace=wrap;html=1;" vertex="1" parent="iSf787gSKqXTCaNpPg6H-11">
          <mxGeometry y="120" width="140" height="30" as="geometry" />
        </mxCell>
        <mxCell id="iSf787gSKqXTCaNpPg6H-16" value="馆藏数" style="text;strokeColor=none;fillColor=none;align=left;verticalAlign=middle;spacingLeft=4;spacingRight=4;overflow=hidden;points=[[0,0.5],[1,0.5]];portConstraint=eastwest;rotatable=0;whiteSpace=wrap;html=1;" vertex="1" parent="iSf787gSKqXTCaNpPg6H-11">
          <mxGeometry y="150" width="140" height="30" as="geometry" />
        </mxCell>
        <mxCell id="iSf787gSKqXTCaNpPg6H-17" value="借阅表" style="swimlane;fontStyle=0;childLayout=stackLayout;horizontal=1;startSize=30;horizontalStack=0;resizeParent=1;resizeParentMax=0;resizeLast=0;collapsible=1;marginBottom=0;whiteSpace=wrap;html=1;" vertex="1" parent="1">
          <mxGeometry x="280" y="690" width="140" height="150" as="geometry" />
        </mxCell>
        <mxCell id="iSf787gSKqXTCaNpPg6H-18" value="借阅时间" style="text;strokeColor=none;fillColor=none;align=left;verticalAlign=middle;spacingLeft=4;spacingRight=4;overflow=hidden;points=[[0,0.5],[1,0.5]];portConstraint=eastwest;rotatable=0;whiteSpace=wrap;html=1;" vertex="1" parent="iSf787gSKqXTCaNpPg6H-17">
          <mxGeometry y="30" width="140" height="30" as="geometry" />
        </mxCell>
        <mxCell id="iSf787gSKqXTCaNpPg6H-19" value="图书编号" style="text;strokeColor=none;fillColor=none;align=left;verticalAlign=middle;spacingLeft=4;spacingRight=4;overflow=hidden;points=[[0,0.5],[1,0.5]];portConstraint=eastwest;rotatable=0;whiteSpace=wrap;html=1;" vertex="1" parent="iSf787gSKqXTCaNpPg6H-17">
          <mxGeometry y="60" width="140" height="30" as="geometry" />
        </mxCell>
        <mxCell id="iSf787gSKqXTCaNpPg6H-20" value="读者姓名" style="text;strokeColor=none;fillColor=none;align=left;verticalAlign=middle;spacingLeft=4;spacingRight=4;overflow=hidden;points=[[0,0.5],[1,0.5]];portConstraint=eastwest;rotatable=0;whiteSpace=wrap;html=1;" vertex="1" parent="iSf787gSKqXTCaNpPg6H-17">
          <mxGeometry y="90" width="140" height="30" as="geometry" />
        </mxCell>
        <mxCell id="iSf787gSKqXTCaNpPg6H-21" value="借阅数量" style="text;strokeColor=none;fillColor=none;align=left;verticalAlign=middle;spacingLeft=4;spacingRight=4;overflow=hidden;points=[[0,0.5],[1,0.5]];portConstraint=eastwest;rotatable=0;whiteSpace=wrap;html=1;" vertex="1" parent="iSf787gSKqXTCaNpPg6H-17">
          <mxGeometry y="120" width="140" height="30" as="geometry" />
        </mxCell>
        <mxCell id="iSf787gSKqXTCaNpPg6H-22" value="归还" style="rounded=0;whiteSpace=wrap;html=1;" vertex="1" parent="1">
          <mxGeometry x="90" y="440" width="100" height="40" as="geometry" />
        </mxCell>
        <mxCell id="iSf787gSKqXTCaNpPg6H-27" value="请求图书信息" style="text;html=1;align=center;verticalAlign=middle;whiteSpace=wrap;rounded=0;" vertex="1" parent="1">
          <mxGeometry x="220" y="130" width="80" height="30" as="geometry" />
        </mxCell>
        <mxCell id="iSf787gSKqXTCaNpPg6H-28" value="请求借阅信息" style="text;html=1;align=center;verticalAlign=middle;whiteSpace=wrap;rounded=0;" vertex="1" parent="1">
          <mxGeometry x="220" y="220" width="80" height="30" as="geometry" />
        </mxCell>
        <mxCell id="iSf787gSKqXTCaNpPg6H-29" value="修改借阅信息" style="text;html=1;align=center;verticalAlign=middle;whiteSpace=wrap;rounded=0;" vertex="1" parent="1">
          <mxGeometry x="220" y="250" width="80" height="20" as="geometry" />
        </mxCell>
        <mxCell id="iSf787gSKqXTCaNpPg6H-30" value="删除借阅信息" style="text;html=1;align=center;verticalAlign=middle;whiteSpace=wrap;rounded=0;" vertex="1" parent="1">
          <mxGeometry x="220" y="270" width="80" height="30" as="geometry" />
        </mxCell>
        <mxCell id="iSf787gSKqXTCaNpPg6H-31" value="提交借阅" style="text;html=1;align=center;verticalAlign=middle;whiteSpace=wrap;rounded=0;" vertex="1" parent="1">
          <mxGeometry x="230" y="345" width="60" height="30" as="geometry" />
        </mxCell>
        <mxCell id="iSf787gSKqXTCaNpPg6H-32" value="确认归还" style="text;html=1;align=center;verticalAlign=middle;whiteSpace=wrap;rounded=0;" vertex="1" parent="1">
          <mxGeometry x="230" y="445" width="60" height="30" as="geometry" />
        </mxCell>
        <mxCell id="iSf787gSKqXTCaNpPg6H-34" value="向数据库请求图书信息" style="text;html=1;align=center;verticalAlign=middle;whiteSpace=wrap;rounded=0;" vertex="1" parent="1">
          <mxGeometry x="560" y="125" width="240" height="40" as="geometry" />
        </mxCell>
        <mxCell id="iSf787gSKqXTCaNpPg6H-36" value="请求借阅信息" style="text;html=1;align=center;verticalAlign=middle;whiteSpace=wrap;rounded=0;" vertex="1" parent="1">
          <mxGeometry x="620" y="215" width="150" height="20" as="geometry" />
        </mxCell>
        <mxCell id="iSf787gSKqXTCaNpPg6H-37" value="修改借阅信息" style="text;html=1;align=center;verticalAlign=middle;whiteSpace=wrap;rounded=0;" vertex="1" parent="1">
          <mxGeometry x="650" y="235" width="90" height="20" as="geometry" />
        </mxCell>
        <mxCell id="iSf787gSKqXTCaNpPg6H-38" value="删除借阅信息" style="text;html=1;align=center;verticalAlign=middle;whiteSpace=wrap;rounded=0;" vertex="1" parent="1">
          <mxGeometry x="655" y="250" width="80" height="30" as="geometry" />
        </mxCell>
        <mxCell id="iSf787gSKqXTCaNpPg6H-39" value="提交借阅" style="text;html=1;align=center;verticalAlign=middle;whiteSpace=wrap;rounded=0;" vertex="1" parent="1">
          <mxGeometry x="665" y="350" width="60" height="30" as="geometry" />
        </mxCell>
        <mxCell id="iSf787gSKqXTCaNpPg6H-40" value="删除借阅" style="text;html=1;align=center;verticalAlign=middle;whiteSpace=wrap;rounded=0;" vertex="1" parent="1">
          <mxGeometry x="665" y="445" width="60" height="30" as="geometry" />
        </mxCell>
        <mxCell id="iSf787gSKqXTCaNpPg6H-41" value="" style="rounded=0;whiteSpace=wrap;html=1;" vertex="1" parent="1">
          <mxGeometry x="800" y="120" width="130" height="365" as="geometry" />
        </mxCell>
        <mxCell id="iSf787gSKqXTCaNpPg6H-42" value="函数向数据库操作" style="text;html=1;align=center;verticalAlign=middle;whiteSpace=wrap;rounded=0;" vertex="1" parent="1">
          <mxGeometry x="820" y="260" width="100" height="45" as="geometry" />
        </mxCell>
      </root>
    </mxGraphModel>
  </diagram>
</mxfile>
